<svg width="120" height="58" viewBox="0 0 120 58" fill="none" xmlns="http://www.w3.org/2000/svg">
<rect width="2" height="58" fill="#6F5352"/>
<rect x="7" width="1" height="58" fill="#6F5352"/>
<rect x="11" width="2" height="58" fill="#6F5352"/>
<rect x="16" width="5" height="58" fill="#6F5352"/>
<rect x="24" width="2" height="58" fill="#6F5352"/>
<rect x="28" width="2" height="58" fill="#6F5352"/>
<rect x="32" width="5" height="58" fill="#6F5352"/>
<rect x="39" width="2" height="58" fill="#6F5352"/>
<rect x="45" width="1" height="58" fill="#6F5352"/>
<rect x="49" width="2" height="58" fill="#6F5352"/>
<rect x="55" width="1" height="58" fill="#6F5352"/>
<rect x="60" width="4" height="58" fill="#6F5352"/>
<rect x="67" width="2" height="58" fill="#6F5352"/>
<rect x="72" width="2" height="58" fill="#6F5352"/>
<rect x="77" width="6" height="58" fill="#6F5352"/>
<rect x="85" width="6" height="58" fill="#6F5352"/>
<rect x="93" width="3" height="58" fill="#6F5352"/>
<rect x="100" width="2" height="58" fill="#6F5352"/>
<rect x="105" width="2" height="58" fill="#6F5352"/>
<rect x="110" width="2" height="58" fill="#6F5352"/>
<rect x="115" width="5" height="58" fill="#6F5352"/>
</svg>
